<?xml version="1.0" encoding="utf-8"?>
<!-- Generator: Adobe Illustrator 27.5.0, SVG Export Plug-In . SVG Version: 6.00 Build 0)  -->
<svg version="1.1" xmlns="http://www.w3.org/2000/svg" xmlns:xlink="http://www.w3.org/1999/xlink" x="0px" y="0px"
	 viewBox="0 0 500 500" style="enable-background:new 0 0 500 500;" xml:space="preserve">
<g id="Background_Simple">
	<g>
		<path style="fill:#C6FF00;" d="M390.29,47.487c0,0-49.865-40.725-114.73-22.671c-64.865,18.053-92.011,73.934-129.212,112.348
			c-19.481,20.116-48.254,27.532-71.396,43.015c-73.997,49.508-63.044,160.812-5.98,202.806
			c49.401,36.355,111.125,40.158,191.451,13.343c80.326-26.815,137.809-42.917,187.625-119.71
			C497.863,199.826,451.721,102.765,390.29,47.487z"/>
		<path style="opacity:0.7;fill:#FFFFFF;" d="M390.29,47.487c0,0-49.865-40.725-114.73-22.671
			c-64.865,18.053-92.011,73.934-129.212,112.348c-19.481,20.116-48.254,27.532-71.396,43.015
			c-73.997,49.508-63.044,160.812-5.98,202.806c49.401,36.355,111.125,40.158,191.451,13.343
			c80.326-26.815,137.809-42.917,187.625-119.71C497.863,199.826,451.721,102.765,390.29,47.487z"/>
	</g>
</g>
<g id="Labyrinth">
	<g>
		<path style="fill:#263238;" d="M248.086,210.373c-67.87,0-131.326,18.24-174.098,50.042l7.155,3.492
			c40.046-29.776,99.001-47.144,162.339-47.949v15.799c-101.829,1.478-183.91,51.837-183.91,113.528
			c0,19.915,8.564,38.645,23.574,54.935l-22.662,8.273c-17.456-18.853-27.144-40.466-27.144-63.208
			c0-21.838,9.2-43.422,26.604-62.419l-8.061-2.68c-18.155,19.816-27.751,42.326-27.751,65.099c0,27.556,13.7,54.057,39.619,76.639
			c25.319,22.059,60.489,38.932,101.706,48.793l3.399-5.155c-44.237-10.584-80.043-29.121-103.724-52.281l22.677-8.279
			c33.277,32.293,92.672,53.846,160.276,53.846c103.947,0,188.513-50.944,188.513-113.563c0-38.909-32.513-74.685-86.971-95.698
			l-4.966,4.671c51.802,19.988,82.73,54.017,82.73,91.027c0,39.009-34.506,73.252-86.093,92.241l-11.82-11.309
			c21.369-7.808,39.655-18.758,53.152-32.273l-7.889-2.86c-26.998,27.036-74.346,43.176-126.655,43.176
			c-45.483,0-87.755-12.348-115.979-33.876l-7.227,3.438c11.671,8.902,25.611,16.319,41.126,22.067l-11.363,11.551
			c-51.46-19.006-85.865-53.204-85.865-92.154c0-59.56,80.437-108.017,179.306-108.017c25.778,0,50.657,3.224,73.943,9.582
			l3.801-5.052c-23.098-6.307-47.682-9.678-73.14-10.041v-15.803c116.293,1.482,210.142,58.926,210.142,129.331
			c0,71.332-96.335,129.366-214.746,129.366c-14.532,0-29.057-0.879-43.175-2.615l-1.84,5.435
			c14.721,1.809,29.867,2.727,45.015,2.727c123.488,0,223.954-60.522,223.954-134.912
			C472.04,270.895,371.575,210.373,248.086,210.373z M173.991,428.654c22.444,7.249,47.76,11.153,74.096,11.153
			c26.201,0,51.226-3.815,73.37-10.854l11.859,11.346c-25.364,8.29-54.4,13.002-85.228,13.002c-30.928,0-60.051-4.742-85.473-13.081
			L173.991,428.654z"/>
		<path style="fill:#263238;" d="M393.325,381.116c7.742-11.377,11.667-23.432,11.667-35.83c0-52.12-70.387-94.522-156.905-94.522
			c-36.81,0-72.592,7.834-100.755,22.059l5.917,4.25c26.507-13.389,60.188-20.762,94.838-20.762c24.12,0,46.906,3.502,67.036,9.704
			l-12.819,16.412c-16.237-5.103-34.67-8.007-54.216-8.007c-7.529,0-15.064,0.432-22.4,1.284l1.743,5.446
			c6.763-0.785,13.713-1.184,20.657-1.184c58.882,0,106.917,28.428,108.358,63.694h-30.936c-0.511-9.015-5.266-17.642-13.837-25.047
			l-7.552,3.172c8.002,6.913,12.233,15.039,12.233,23.499c0,21.286-27.552,39.29-62.724,40.991l0.736,5.529
			c10.006-0.484,19.469-2.131,28.032-4.707l16.073,15.997c-15.065,4.784-32.202,7.507-50.382,7.507
			c-37.738,0-71.019-11.681-90.445-29.35l27.057-9.108c8.168,6.997,19.542,12.655,33.231,16.142l3.586-5.108
			c-2.298-0.586-4.52-1.242-6.665-1.962l13.764-12.899c5.849,1.802,12.464,2.825,19.472,2.825c3.418,0,6.82-0.243,10.111-0.722
			l-2.163-5.392c-2.584,0.376-5.259,0.567-7.949,0.567c-18.592,0-33.717-9.112-33.717-20.311c0-11.2,15.126-20.312,33.717-20.312
			c18.592,0,33.717,9.112,33.717,20.312c0,4.818-2.85,9.49-8.023,13.152l7.012,3.595c6.59-4.666,10.219-10.613,10.219-16.747
			c0-14.259-19.256-25.859-42.925-25.859c-7.102,0-13.8,1.051-19.706,2.898l-13.942-12.819c10.097-3.447,21.628-5.344,33.648-5.344
			c14.534,0,28.406,2.713,40.117,7.846l5.418-4.485c-13.295-5.828-29.041-8.908-45.534-8.908c-26.27,0-50.538,7.921-64.918,21.189
			l7.71,3.032c4.352-4.015,9.751-7.459,15.877-10.271l13.948,12.825c-9.489,4.747-15.542,11.904-15.542,19.898
			c0,8.05,6.141,15.252,15.747,19.998l-13.779,12.913c-16.961-7.651-27.309-19.744-27.309-32.911c0-3.412,0.694-6.801,2.062-10.075
			l-8.929-1.354c-1.553,3.717-2.341,7.562-2.341,11.43c0,7.909,3.298,15.474,9.246,22.134l-26.988,9.085
			c-8.419-9.281-13.212-19.919-13.212-31.219c0-24.97,24.156-48.094,61.541-58.914l-3.986-5
			c-39.168,11.335-64.945,35.123-66.664,61.14H100.48c0.93-18.521,11.151-36.053,29.743-50.857l-7.343-3.346
			c-20.738,16.512-31.699,36.215-31.699,56.976c0,14.732,5.471,28.846,16.261,41.949l8.249-2.465
			c-9.474-11.506-14.587-23.844-15.229-36.711h30.107c2.43,37.792,54.198,68.091,117.518,68.091
			c64.864,0,117.635-31.79,117.635-70.864c0-25.315-22.164-47.559-55.4-60.096l12.878-16.485
			c43.415,15.512,72.586,44.031,72.586,76.581c0,11.673-3.694,23.02-10.978,33.726L393.325,381.116z M306.423,400.3l-16.055-15.98
			c19.468-7.718,32.842-20.558,34.9-35.113H356.3C354.18,370.659,334.796,389.343,306.423,400.3z"/>
	</g>
</g>
<g id="Character">
	<path style="opacity:0.3;" d="M278.402,324.174c-0.097-0.295-0.387-1.193-5.973-0.758c-3.07,0.237-8.471,0.645-11.27,0.855
		c-1.296-1.036-16.497-12.444-16.547-12.333c-0.565-0.493-8.923-7.705-11.515-9.774c1.386-0.216,2.116-0.483,2.462-0.887
		c0.348-0.406,1.83-2.296,2.093-2.632c5.23-3.314,15.162-9.588,15.781-9.919c1.717-0.919,1.926-1.769,1.798-2.319
		c-0.193-0.842-1.268-1.342-3.023-1.409c-1.06-0.04-4.868-0.733-9.277-1.536c-7.674-1.397-18.184-3.311-23.15-3.442
		c-7.046-0.184-14.116,1.212-15.476,1.496c-2.229,0.293-5.136,0.757-8.423,1.372c-0.395-1.431-1.688-3.228-2.471-4.228
		c1.364-1.467,1.266-2.777,0.44-3.497c-0.601-0.523-7.572-1.364-7.916-0.713c-2.495,0.042-5.284,0.19-7.937,0.421
		c0.331-0.259-0.757-0.641-1.928,0.184c-1.689,0.178-3.27,0.388-4.619,0.625c-7.175,1.261-16.93,4.601-17.851,6.986
		c-0.322,0.834,0.225,1.581,1.086,2.214c-1.096,0.327-0.241,1.116,1.131,0.693c0.306,0.159,0.618,0.305,0.929,0.441
		c-0.507,0.112,0.689,0.873,1.669,0.65c0.001,0,0.001,0,0.001,0.001c-0.241,0.186-0.394,0.422-0.379,0.734
		c0.072,1.485,4.639,2.06,4.686,2.065c0.317,0.035,0.632,0.051,0.941,0.051c1.437-0.001,2.721-0.329,3.392-0.537
		c0.615,0.202,1.248,0.396,1.89,0.579c-0.622,0.473-1.006,0.826-1.24,1.089c-2.463,1.013-5.694,2.375-8.62,3.715
		c-0.048,0.004-0.097,0.008-0.144,0.027c-0.081,0.032-8.133,3.263-13.125,6.259c-0.917,0.55-1.054,1.215-1.007,1.676
		c0.244,2.414,6.768,5.896,19.391,10.347l0.196,0.069c2.266,0.801,4.484,1.2,6.702,1.2c1.415,0,2.83-0.165,4.257-0.489
		c3.287,3.477,12.866,17.996,15.586,19.885c1.564,1.085,8.344,15.257,12.267,19.169c-0.436,0.361,0.246,1.097,0.711,0.71
		c0.943,0.944,2.944,3.715,3.408,3.435c0.208,0.211,0.409,0.415,0.604,0.613c-0.326,0.164,0.313,0.963,0.736,0.749
		c0.972,0.991,1.671,1.708,1.95,1.995c-0.599,1.201-1.468,3.366-0.537,4.385c0.566,0.62,1.659,1.383,3.609,1.383
		c1.199,0,2.724-0.289,4.649-1.076c3.499-1.432,5.101-3.41,4.76-5.881c-0.053-0.381-0.161-0.707-0.293-0.986
		c0.09-0.122,0.135-0.273,0.094-0.422l-3.691-13.348c0.395-0.909-6.552-29.86-6.552-29.86c0.126-0.004,0.235-0.067,0.324-0.157
		c3.873,2.376,14.306,8.622,21.329,11.403c-0.303,0.335-0.613,0.665-0.937,0.986c-0.196,0.194-0.198,0.511-0.004,0.707
		c0.098,0.099,0.227,0.148,0.355,0.148c0.127,0,0.254-0.048,0.352-0.145c0.43-0.426,0.841-0.863,1.234-1.31
		c3.37,1.241,9.258,1.194,9.315,1.1c3.822,1.136,6.48,1.805,6.534,1.818c0.052,0.01,0.272,0.049,0.755,0.031
		c0.577,0.103,1.207,0.146,1.856,0.146c1.817,0,3.789-0.329,5.204-0.565l0.46-0.076c0.952-0.154,1.993-0.168,3.199-0.184
		c1.524-0.021,3.252-0.043,5.491-0.332c4.14-0.535,8.451-1.783,9.73-2.568C278.494,324.81,278.472,324.39,278.402,324.174z
		 M236.268,289.788l-4.991,7.877l-2.344,1.24c-0.084-0.065-0.163-0.125-0.236-0.181c-0.003-0.085-0.008-0.171-0.039-0.253
		c-0.298-0.805-5.455-6.773-9.182-10.721l0.529,0.023L236.268,289.788z"/>
	<g>
		<path style="fill:#FFFFFF;stroke:#263238;stroke-linecap:round;stroke-linejoin:round;stroke-miterlimit:10;" d="M277.024,199.719
			l-6.217,5.181c0,0-1.209,1.9-0.345,2.936c0.864,1.036,1.727,2.763,1.727,2.763s1.036,2.072,2.072,2.418
			c1.036,0.345,2.245,0.518,2.936-0.691c0.691-1.209,4.145-7.599,4.145-7.599L277.024,199.719z"/>
		<path style="fill:#FFFFFF;stroke:#263238;stroke-linecap:round;stroke-linejoin:round;stroke-miterlimit:10;" d="M216.065,344.92
			c0,0-4.726,10.273-4.931,14.794c-0.206,4.52,0.822,9.246,5.959,6.37c5.137-2.877,7.345-10.254,8.424-14.999
			c1.079-4.745,0.822-7.397,0.822-7.397L216.065,344.92z"/>
		<path style="fill:#FFFFFF;stroke:#263238;stroke-linecap:round;stroke-linejoin:round;stroke-miterlimit:10;" d="M273.392,321.496
			c0,0,7.602,4.315,11.301,6.37c3.698,2.055,4.931,5.137,3.288,6.78c-1.644,1.644-6.164,2.671-9.863,1.438
			c-3.698-1.233-5.342-4.315-7.397-4.726c-2.055-0.411-6.37-0.822-6.986-6.37C263.118,319.441,273.392,321.496,273.392,321.496z"/>
		<g>
			<defs>
				<path id="XMLID_1_" d="M218.998,204.9c0,0-2.418,59.926-1.9,69.942c0.518,10.016-1.554,70.806-1.554,70.806
					s2.072,2.245,6.044,2.245c3.972,0,5.008-1.554,5.008-1.554l21.242-111.389c0,0,3.281,43.52,7.253,60.962
					c3.972,17.442,8.769,31.014,8.769,31.014s0.733,1.858,5.392,0.935c4.054-0.804,5.526-5.526,5.526-5.526
					s-0.863-44.038-0.691-71.151s-0.691-52.5-0.691-52.5s-18.306,6.044-31.431,7.599C228.842,207.836,218.998,204.9,218.998,204.9z"
					/>
			</defs>
			<use xlink:href="#XMLID_1_"  style="overflow:visible;fill:#263238;"/>
			<clipPath id="XMLID_00000118365967952979881580000012682914898610216582_">
				<use xlink:href="#XMLID_1_"  style="overflow:visible;"/>
			</clipPath>
			
				<path style="clip-path:url(#XMLID_00000118365967952979881580000012682914898610216582_);fill:none;stroke:#8A8A8A;stroke-linecap:round;stroke-linejoin:round;stroke-miterlimit:10;" d="
				M244.12,263.759c-5.008,13.42-11.564,26.433-18.999,38.656c-3.486,5.732-7.242,11.307-11.355,16.609"/>
			
				<path style="clip-path:url(#XMLID_00000118365967952979881580000012682914898610216582_);fill:none;stroke:#8A8A8A;stroke-linecap:round;stroke-linejoin:round;stroke-miterlimit:10;" d="
				M230.503,308.999c-2.23,4.255-4.691,8.373-7.395,12.276c-2.718,3.924-5.763,7.679-9.37,10.825"/>
			
				<path style="clip-path:url(#XMLID_00000118365967952979881580000012682914898610216582_);fill:none;stroke:#8A8A8A;stroke-linecap:round;stroke-linejoin:round;stroke-miterlimit:10;" d="
				M239.292,288.339c-1.829,5.382-3.969,10.742-6.438,15.947"/>
			
				<path style="clip-path:url(#XMLID_00000118365967952979881580000012682914898610216582_);fill:none;stroke:#8A8A8A;stroke-linecap:round;stroke-linejoin:round;stroke-miterlimit:10;" d="
				M275.283,247.52c0,0-10.973,33.797-22.824,52.231"/>
			
				<path style="clip-path:url(#XMLID_00000118365967952979881580000012682914898610216582_);fill:none;stroke:#8A8A8A;stroke-linecap:round;stroke-linejoin:round;stroke-miterlimit:10;" d="
				M274.844,258.053c-3.141,20.177-6.682,40.537-15.532,58.966"/>
			
				<polyline style="clip-path:url(#XMLID_00000118365967952979881580000012682914898610216582_);fill:none;stroke:#8A8A8A;stroke-linecap:round;stroke-linejoin:round;stroke-miterlimit:10;" points="
				247.631,239.18 249.826,233.913 255.97,230.402 			"/>
			<path style="clip-path:url(#XMLID_00000118365967952979881580000012682914898610216582_);fill:#969696;" d="M272.051,196.563
				c0,0-7.199,6.923-25.198,8.861c-17.999,1.938-26.306,0-26.306,0s-2.27,1.085-0.858,2.758c0,0-1.08,1.673,4.734,3.057
				c2.482,0.591,5.423,1.079,8.77,1.317l-0.186-2.979l3.323-0.554v3.676c2.809,0.057,5.863-0.07,9.138-0.449v-3.227l2.492-0.277
				l-0.2,3.2c0.343-0.051,0.683-0.097,1.031-0.154c4.909-0.796,9.619-2.04,13.568-3.482v-4.825l3.6-0.277l-0.329,3.787
				c2.734-1.221,4.881-2.524,6.144-3.787C275.097,199.886,272.051,196.563,272.051,196.563z"/>
			
				<path style="clip-path:url(#XMLID_00000118365967952979881580000012682914898610216582_);fill:none;stroke:#8A8A8A;stroke-linecap:round;stroke-linejoin:round;stroke-miterlimit:10;" d="
				M227.88,325.208c-4.454,4.239-9.124,8.29-14.009,12.025"/>
			
				<use xlink:href="#XMLID_1_"  style="overflow:visible;fill:none;stroke:#263238;stroke-linecap:round;stroke-linejoin:round;stroke-miterlimit:10;"/>
		</g>
		<g>
			<path style="fill:#C6FF00;stroke:#263238;stroke-linecap:round;stroke-linejoin:round;stroke-miterlimit:10;" d="
				M269.771,124.424c0,0,7.771-0.173,13.816,6.39c6.044,6.563,18.997,38.684,21.242,41.275c2.245,2.59,1.41,7.637-1.743,10.305
				c-1.03,0.871-21.744,22.334-21.744,22.334l-4.317-5.008l12.261-25.559l-14.679-25.214"/>
			<polygon style="fill:#263238;stroke:#263238;stroke-linecap:round;stroke-linejoin:round;stroke-miterlimit:10;" points="
				276.357,146.736 276.913,142.281 278.584,155.273 276.542,152.861 			"/>
			<path style="fill:none;stroke:#263238;stroke-linecap:round;stroke-linejoin:round;stroke-miterlimit:10;" d="M296.294,178.028
				c-4.366,0.242-7.009-3.867-7.009-3.867s1.43,5.323,7.494,5.565"/>
		</g>
		<path style="fill:#C6FF00;stroke:#263238;stroke-linecap:round;stroke-linejoin:round;stroke-miterlimit:10;" d="M276.434,147.909
			c-0.386,15.394-2.229,48.515-2.692,51.293c-0.518,3.109-4.145,5.008-18.479,9.326s-34.194,2.763-35.576-0.345
			c-1.382-3.109-4.145-18.306-4.145-25.559c0-7.253-6.908-35.403-0.864-41.793s22.623-15.025,22.623-15.025
			c13.298-5.181,27.804-3.281,33.676-1.036c1.024,0.391,1.858,0.851,2.539,1.406"/>
		<g>
			<polygon style="fill:#FFFFFF;stroke:#263238;stroke-linecap:round;stroke-linejoin:round;stroke-miterlimit:10;" points="
				242.657,143.075 248.356,147.91 244.384,197.302 253.883,207.145 260.272,192.811 251.638,147.22 255.782,140.484 
				249.22,134.267 			"/>
			<g>
				<polygon style="fill:#263238;" points="258.537,183.649 244.658,193.902 244.384,197.302 247.543,200.575 260,191.373 				"/>
				<polygon style="fill:#263238;" points="253.3,156 251.838,148.276 248.105,151.033 247.352,160.394 				"/>
				<polygon style="fill:#263238;" points="255.187,165.962 246.381,172.468 245.629,181.828 256.65,173.686 				"/>
			</g>
		</g>
		<path style="fill:#C6FF00;stroke:#263238;stroke-linecap:round;stroke-linejoin:round;stroke-miterlimit:10;" d="M237.304,122.524
			c0,0-5.008,5.354-5.008,7.081c0,1.727,4.663,14.852,5.872,16.061c1.209,1.209,10.707-6.39,10.707-6.39s10.016,5.872,10.707,5.008
			c0.691-0.863-0.864-10.362-2.763-15.197C254.919,124.251,244.73,117.688,237.304,122.524z"/>
		<path style="fill:#263238;stroke:#263238;stroke-linecap:round;stroke-linejoin:round;stroke-miterlimit:10;" d="M239.549,129.605
			c0,0,5.181,13.298,10.362,13.988c5.181,0.691,6.217-10.707,5.872-13.988C255.437,126.323,244.039,121.66,239.549,129.605z"/>
		<g>
			<path style="fill:#FFFFFF;stroke:#263238;stroke-linecap:round;stroke-linejoin:round;stroke-miterlimit:10;" d="
				M263.915,102.661c0,0-0.831,14.546-2.494,20.78c-1.662,6.234-3.74,12.884-7.273,13.715c-3.533,0.831-11.014-2.701-14.546-6.026
				c-3.533-3.325-7.273-19.741-7.273-24.521c0-4.779,13.091-8.935,20.364-9.143C259.967,97.258,263.915,102.661,263.915,102.661z"/>
			<g>
				<polyline style="fill:none;stroke:#263238;stroke-linecap:round;stroke-linejoin:round;stroke-miterlimit:10;" points="
					255.661,117.232 255.661,125.343 252.44,125.821 				"/>
				<path style="fill:none;stroke:#263238;stroke-linecap:round;stroke-linejoin:round;stroke-miterlimit:10;" d="M244.09,117.232
					c0,0,1.909,2.147,7.396,0.596"/>
				<path style="fill:none;stroke:#263238;stroke-linecap:round;stroke-linejoin:round;stroke-miterlimit:10;" d="M256.377,117.113
					c0,0,2.267,0.716,4.652-1.551"/>
				<path style="fill:none;stroke:#263238;stroke-linecap:round;stroke-linejoin:round;stroke-miterlimit:10;" d="M255.901,116.103
					c0,0,0.979-2.658,5.316-3.497"/>
				<path style="fill:none;stroke:#263238;stroke-linecap:round;stroke-linejoin:round;stroke-miterlimit:10;" d="M252.123,116.663
					c0,0-2.938-3.218-7.974-2.098"/>
				
					<line style="fill:none;stroke:#263238;stroke-linecap:round;stroke-linejoin:round;stroke-miterlimit:10;" x1="252.263" y1="129.673" x2="255.481" y2="129.114"/>
				<path style="fill:none;stroke:#263238;stroke-linecap:round;stroke-linejoin:round;stroke-miterlimit:10;" d="M245.968,118.761
					c0,0,1.477,0.933,3.497,0"/>
				<path style="fill:none;stroke:#263238;stroke-linecap:round;stroke-linejoin:round;stroke-miterlimit:10;" d="M256.882,117.793
					c0,0,1.659,0.547,3.393-0.848"/>
			</g>
		</g>
		<g>
			<defs>
				<path id="XMLID_2_" d="M233.368,112.012c0,0,4.364,2.701,6.442,0.416c2.078-2.286,0.885-2.799,1.716-4.461
					c0.831-1.662,2.47-0.737,2.678,2.38s-2.524,3.328,0.801,3.743c3.325,0.416,3.65,1.426,11.546-2.107
					c7.896-3.533,11.312-13.478,11.312-18.881s-11.429-13.923-18.286-14.962c-6.857-1.039-17.663,3.117-20.572,10.598
					c-2.909,7.481,0.416,17.871,0.623,19.118C229.835,109.103,229.835,111.389,233.368,112.012z"/>
			</defs>
			<use xlink:href="#XMLID_2_"  style="overflow:visible;fill:#263238;"/>
			<clipPath id="XMLID_00000088816567497020566750000005774479054558848402_">
				<use xlink:href="#XMLID_2_"  style="overflow:visible;"/>
			</clipPath>
			
				<path style="clip-path:url(#XMLID_00000088816567497020566750000005774479054558848402_);fill:none;stroke:#8A8A8A;stroke-linecap:round;stroke-linejoin:round;stroke-miterlimit:10;" d="
				M258.667,91.954c-4.913,6.137-14.315,12.571-32.113,12.356"/>
			
				<path style="clip-path:url(#XMLID_00000088816567497020566750000005774479054558848402_);fill:none;stroke:#8A8A8A;stroke-linecap:round;stroke-linejoin:round;stroke-miterlimit:10;" d="
				M263.871,81.17c0,0-0.497,3.312-2.899,7.429"/>
			
				<path style="clip-path:url(#XMLID_00000088816567497020566750000005774479054558848402_);fill:none;stroke:#8A8A8A;stroke-linecap:round;stroke-linejoin:round;stroke-miterlimit:10;" d="
				M256.409,77.658c0,0-13.607,19.312-32.48,21.946"/>
		</g>
		<g>
			<path style="fill:#FFFFFF;stroke:#263238;stroke-linecap:round;stroke-linejoin:round;stroke-miterlimit:10;" d="
				M236.429,114.292c0,0-2.265-7.229-5.913-7.315c-3.648-0.086-1.57,7.586,0.038,10.199c1.608,2.614,4.217,1.308,4.217,1.308"/>
			<path style="fill:none;stroke:#263238;stroke-linecap:round;stroke-linejoin:round;stroke-miterlimit:10;" d="M230.999,113.725
				c0,0-0.839-3.497,0.839-2.798c1.679,0.7,2.518,3.218,2.518,3.218s-1.399-0.14-1.259,0.7c0.14,0.839,1.119,0.839,1.119,0.839"/>
		</g>
		<g>
			<g>
				<g>
					<path style="fill:#C6FF00;stroke:#263238;stroke-linecap:round;stroke-linejoin:round;stroke-miterlimit:10;" d="
						M222.279,134.613c0,0-9.326,5.008-16.061,11.571c-6.735,6.563,3.281,47.146,4.49,52.154c1.747,7.236,4.317,10.535,7.944,10.362
						s15.888-21.414,19.687-30.567c3.799-9.153,6.044-20.378,6.044-20.378s4.835-1.9,5.699-3.627
						c0.863-1.727,1.382-3.627,1.382-3.627s0.864,2.59,2.418,1.9c1.554-0.691,2.245-4.663,2.59-7.426
						c0.345-2.763-6.735-5.181-6.735-5.181s0.863-3.627,2.936-4.145c2.072-0.518,4.49-2.418,3.799-3.454
						c-0.691-1.036-6.562,2.59-6.562,2.59s-4.663,7.253-6.39,10.535c-1.129,2.145-3.882,8.128-5.653,12.014
						c-1.079,2.367-2.38,4.622-3.889,6.74l-8.419,11.813c0,0-0.345-21.242-0.345-22.105"/>
					
						<line style="fill:none;stroke:#263238;stroke-linecap:round;stroke-linejoin:round;stroke-miterlimit:10;" x1="225.502" y1="160.285" x2="228.471" y2="152.861"/>
				</g>
				<path style="fill:none;stroke:#263238;stroke-linecap:round;stroke-linejoin:round;stroke-miterlimit:10;" d="M214.551,189.239
					c0-2.042,11.009-13.351,11.009-13.351s-12.123,7.783-13.422,10.011"/>
			</g>
			<path style="fill:#FFFFFF;stroke:#263238;stroke-linecap:round;stroke-linejoin:round;stroke-miterlimit:10;" d="
				M250.083,154.127c0.863-1.727,1.382-3.627,1.382-3.627s0.863,2.59,2.418,1.9c1.554-0.691,2.245-4.663,2.59-7.426
				c0.345-2.763-6.217-5.354-6.217-5.354s1.036-3.108,2.418-3.972c1.812-1.132,4.49-2.418,3.799-3.454
				c-0.394-0.591-2.472-0.002-4.186,0.613c-1.498,0.537-2.744,1.595-3.521,2.984c-1.495,2.672-4.06,7.278-5.245,9.528
				c-1.036,1.969-3.439,7.168-5.196,11.014c0.761,1.319,2.357,2.9,5.681,3.176c0.248-1.106,0.379-1.756,0.379-1.756
				S249.22,155.854,250.083,154.127z"/>
			<path style="fill:#FFFFFF;stroke:#263238;stroke-linecap:round;stroke-linejoin:round;stroke-miterlimit:10;" d="
				M249.911,145.838c0,0,4.145,1.727,5.181,2.418s0.518,1.554,0.518,1.554"/>
			<path style="fill:#FFFFFF;stroke:#263238;stroke-linecap:round;stroke-linejoin:round;stroke-miterlimit:10;" d="
				M249.565,142.557c0,0,5.872,2.763,6.735,3.627"/>
		</g>
	</g>
</g>
</svg>
